<svg width="1024" height="1024" viewBox="0 0 1024 1024" fill="none" xmlns="http://www.w3.org/2000/svg">
<circle cx="513.5" cy="510.5" r="510.5" fill="black"/>
<path fill-rule="evenodd" clip-rule="evenodd" d="M757.669 319.841C748.838 316.182 743.95 313.383 729.424 309.346C714.898 305.31 717.319 305.31 702.793 302.888C688.267 300.466 680.5 299.659 677.776 299.659C675.052 299.659 677.776 299.659 649.531 299.659C621.286 299.659 621 302.888 617.251 305.31C613.503 307.732 603.532 328.721 603.532 328.721L597.883 344.059C598.677 343.019 634.501 332.348 644.689 331.142C654.878 329.937 686.123 330.066 685.039 331.142C685.039 331.142 670.798 375.385 668.899 381.193C667 387 658 403.5 655.987 406.218C653.975 408.936 639.04 431.243 639.04 431.243C639.04 431.243 666.478 437.246 674.548 440.123C682.618 443 699.314 450.693 704.407 453.846C709.5 457 726.69 468.377 731.845 472.413C737 476.45 744.757 485.33 744.757 485.33C744.757 485.33 704.407 494.5 697.951 497.439C691.495 500.377 624.514 532.151 624.514 532.151C624.514 532.151 642.268 547.165 647.11 552.332C651.952 557.5 658.158 567.913 660.829 571.707C663.5 575.5 671.32 595.765 672.127 602.383C672.934 609 672.934 624.986 672.934 624.986C672.934 624.986 658 617 651.952 614.492C645.904 611.983 633.391 608 627.742 606.419C622.093 604.838 618 603.997 601.918 602.383C585.837 600.768 561.568 603.997 561.568 603.997C561.568 603.997 550.5 620 543.007 625.793C535.515 631.587 517.183 641.938 517.183 641.938C517.183 641.938 521.218 651.397 524.446 659.698C527.674 668 528.577 675.832 529.288 683.916C530 692 529.349 708.059 527.674 724.279C526 740.5 518.297 760.816 513.148 771.908C508 783 482.895 830.894 478.447 842.947C474 855 469.071 866.818 465.536 877.659C462 888.5 457.931 899.503 457.466 921.251C457 943 460.694 960 460.694 960C460.694 960 506.279 953.626 523.639 950.313C541 947 593.041 930.939 593.041 930.939C593.041 930.939 619.511 923.472 635.005 913.986C650.5 904.5 666.368 892.735 672.934 884.117C679.5 875.5 694.5 847.79 697.951 835.682C701.402 823.573 703.6 808.235 703.6 808.235C703.6 808.235 706 770.358 707.5 768.679C709 767 719.164 764.357 724.582 768.679C730 773 739.4 782.721 743.95 788.86C748.5 795 755.338 806.385 757.669 814.693C760 823 764.932 847.79 764.932 847.79C764.932 847.79 774.5 818 776.23 804.198C777.96 790.397 778 770.5 777.037 760.606C776.074 750.712 772.931 738 769 724.5C765.069 711 759 696.5 756.055 690.374C753.11 684.249 735.88 656.824 735.88 655.662C735.88 654.5 735.26 652.137 735.88 650.818C736.5 649.5 737.83 646.95 739.915 645.975C742 645 744.47 643.721 747.985 644.36C751.5 645 764.592 648.408 766.546 649.204C768.5 650 788.24 661.084 792.37 664.542C796.5 668 813.046 683.916 815.773 687.145C818.5 690.374 828.712 703.997 831.106 709.749C833.5 715.5 836.755 722.665 836.755 722.665C836.755 722.665 838.5 681 837.562 675.036C836.624 669.073 831.106 639 829.492 633.866C827.878 628.732 813 591.5 808.51 583.008C804.02 574.517 774.616 533.765 774.616 533.765C774.616 533.765 771 526.5 771.388 522.464C771.776 518.427 772.384 517.5 773.5 516C774.616 514.5 780.986 510.595 783.493 509.547C786 508.5 797.121 505.731 808.51 506.318C819.899 506.906 824.738 507.933 838.369 512.777C852 517.62 865 526.5 865 526.5C865 526.5 855 502 848.053 486.944C841.106 471.888 829.492 460.5 819.001 447.388C808.51 434.276 794 425 783.493 415.905C772.986 406.81 729.424 383.615 729.424 383.615L718.933 373.927L717.319 365.855L719.74 361.011L731.038 352.131L743.95 347.288C743.95 347.288 771.214 342.444 785.107 344.866C799 347.288 805.282 348.095 805.282 348.095C805.282 348.095 793.5 338 782.686 332.757C771.872 327.514 766.5 323.5 757.669 319.841ZM761.704 93C761.704 93 749.242 120.696 746.371 126.098C743.5 131.5 738.301 138.5 733.459 142.243C728.617 145.986 723 152.5 717.319 156.774C711.638 161.047 692 172 685.039 175.341C678.078 178.682 624.5 194.5 609.988 201.98C595.477 209.461 577 218.126 567.217 223.777C557.435 229.427 544.5 239 538.972 244.765C533.445 250.531 526.867 256.5 518.797 264.947C510.727 273.394 498.5 293 492.973 298.045C487.447 303.089 479.255 313.383 473.606 318.226C467.957 323.07 460.5 328.721 453.431 332.757C446.361 336.793 427.607 343.251 427.607 343.251L421.151 344.059L420.344 341.637C420.344 341.637 441.247 325.838 452.624 317.419C464 309 472.799 298.045 479.255 284.321C485.71 270.598 505.5 227.5 509.92 218.126C514.341 208.751 522 199 526.867 191.486C531.735 183.972 559.954 159.196 559.954 159.196C559.954 159.196 549 159.196 539.779 161.617C530.559 164.039 521 166 514.762 168.883C508.525 171.765 480.5 183.5 472.799 189.064C465.097 194.628 444 208 433.256 217.318C422.511 226.637 383.222 263.332 383.222 263.332L369.503 273.02L368.696 270.598C368.696 270.598 382.415 262 387.257 248C392.099 234 391.831 235.802 393.5 223.5C395.169 211.198 392.099 190.679 392.099 190.679L387.257 163.232C387.257 163.232 376 199.5 372.731 206.824C369.461 214.148 347 261.5 341.258 270.598C335.515 279.696 315 314.5 305.75 323.877C296.499 333.254 265.5 374.5 261.365 380.385C257.23 386.271 247 404 242.804 411.061C238.608 418.123 238.006 420.17 232 425C225.994 429.83 222 431.5 212.945 436.087C203.89 440.673 164.5 453.5 153.227 459.497C141.954 465.494 138 468.5 132.245 473.221C126.49 477.941 123.5 483 120.947 486.944C118.394 490.888 116.5 494 112.877 502.282C109.254 510.564 104.807 526.5 104 537.802C103.193 549.103 104 554.5 104.807 563.634C105.614 572.768 114.491 587.045 114.491 587.045C114.491 587.045 128.5 576.5 146.5 571C164.5 565.5 184.7 562.02 184.7 562.02C184.7 562.02 205.688 559.581 218.594 558.79C231.5 558 272.561 560.039 292.031 562.02C311.5 564 342.065 571.707 342.065 571.707L342.872 574.936C342.872 574.936 286.256 609.68 268.628 619.335C251 628.991 257.5 626.5 240.383 633.059C223.266 639.617 214.559 642 200.84 643.553C187.121 645.106 154.841 645.975 154.841 645.975C154.841 645.975 169.418 657.626 174.209 661.313C179 665 189.268 669.115 194.384 671.807C199.5 674.5 208.618 677.531 214.559 678.265C220.5 679 233.424 681.374 237.962 680.687C242.5 680 273.878 660.709 287.189 654.855C300.5 649 319.805 643.492 329.153 642.746C338.5 642 360.277 640.148 367.889 640.324C375.5 640.5 425.397 646.293 432.449 648.397C439.5 650.5 450.203 648.397 450.203 648.397C450.203 648.397 463.483 646.782 471.992 644.36C480.5 641.938 522.463 616.754 528.481 612.877C534.5 609 538.972 600.768 538.972 600.768L518.797 598.346L517.99 595.925C517.99 595.925 533.787 589.466 541.393 587.852C549 586.237 567.233 583.008 572.866 583.008C578.5 583.008 592.495 583.008 599.497 583.008C606.5 583.008 618.058 584.975 622.9 586.237C627.742 587.5 650.338 594.31 650.338 594.31C650.338 594.31 637 571.707 633.391 566.863C629.783 562.02 624.514 558 619.672 553.947C614.83 549.894 606.5 545 603.532 543.453C600.565 541.905 585 536 580.936 534.573C576.873 533.145 567.217 532.151 567.217 532.151L566.41 529.729C566.41 529.729 603.477 519.24 609.988 517.62C616.5 516 658.842 493.846 665.671 490.173C672.5 486.5 706.021 476.45 706.021 476.45C706.021 476.45 688.5 466.5 682.618 463.534C676.736 460.567 662.5 456 655.18 453.846C647.861 451.693 637.5 449.5 630.163 449.003C622.827 448.506 597.076 446.581 597.076 446.581C597.076 446.581 615.231 428.455 618.865 423.978C622.5 419.5 631.125 407.249 635.812 401.374C640.5 395.5 661.636 348.095 661.636 348.095C661.636 348.095 642.5 350.5 636.619 351.324C630.739 352.148 618.865 357 612.409 358.589C605.953 360.179 597.883 364 592.234 367.469C586.585 370.938 570.445 381.193 570.445 381.193L568.024 380.385C568.024 380.385 573.5 351.324 576.094 343.251C578.689 335.179 584.5 319.5 587.392 313.383C590.285 307.265 605 284.5 612.409 275.441C619.819 266.383 646.303 245.573 646.303 245.573L711.67 202.788L738.301 174.534L749.599 155.159L756.862 135.785L760.897 115.603L761.704 93Z" fill="white"/>
<path fill-rule="evenodd" clip-rule="evenodd" d="M332.217 853.948L324.145 870.104L314.458 898.377L309.614 921.803L308 942.805C308 942.805 323.777 951.844 334.639 954.922C345.5 958 367.645 961.5 383.072 963C398.5 964.5 438.771 962.192 438.771 962.192L436.349 946.844V914.532L444.422 873.335C444.422 873.335 429.5 876.5 421.012 876.566C412.524 876.632 397.602 876.566 381.458 874.951C365.313 873.335 357 869.5 349.169 865.257C341.337 861.014 332.217 853.948 332.217 853.948ZM498.506 752.974C498.506 752.974 487.5 757.821 479.133 759.436C470.765 761.052 454.5 764 443.614 764.283C432.729 764.566 423 763.5 416.169 762.668C409.337 761.835 397.602 757.821 397.602 757.821L352.398 819.213L341.096 838.6C341.096 838.6 351.325 846.678 359.663 851.525C368 856.371 372.259 857.179 383.88 858.795C395.5 860.41 415.361 859.821 425.855 860.41C436.349 861 450.072 856.371 450.072 856.371L498.506 752.974ZM500.12 652C500.12 652 483.5 661 479.133 662.501C474.765 664.003 469 665.5 462.181 666.54C455.361 667.581 458.5 667.348 447.651 668.156C436.801 668.964 419.398 666.54 419.398 666.54C419.398 666.54 421.024 673.814 421.012 678.657C421 683.5 419.398 700.468 419.398 704.506C419.398 708.545 418 714.5 415.361 721.47C412.723 728.44 406.482 743.281 406.482 743.281C406.482 743.281 417.982 746.512 424.241 747.319C430.5 748.127 440.301 748.935 447.651 748.127C455 747.319 462.181 747.319 475.904 744.088C489.626 740.857 504.157 734.395 504.157 734.395C504.157 734.395 509 714 509 708.545C509 703.091 509 691 509 685.927C509 680.855 507 672.5 505.771 667.348C504.542 662.196 500.12 652 500.12 652Z" fill="white"/>
</svg>
